HIERARCHY
ROOT Hips
{
	OFFSET 0.000000 71.427986 0.000000
	CHANNELS 6 Xposition Yposition Zposition Xrotation Yrotation Zrotation
	JOINT Pelvis
	{
		OFFSET 0.000000 0.000000 0.000000
		CHANNELS 3 Xrotation Yrotation Zrotation
		JOINT LeftUpLeg
		{
			OFFSET 6.797100 -2.508499 -1.318700
			CHANNELS 3 Xrotation Yrotation Zrotation
			JOINT LeftLeg
			{
				OFFSET 0.069008 -29.241863 0.690200
				CHANNELS 3 Xrotation Yrotation Zrotation
				JOINT LeftFoot
				{
					OFFSET -0.069008 -29.568123 -0.266800
					CHANNELS 3 Xrotation Yrotation Zrotation
					JOINT LeftToeBase
					{
						OFFSET 3.145500 -8.631000 16.059900
						CHANNELS 3 Xrotation Yrotation Zrotation
						End Site
						{
							OFFSET 0.000000 18.501587 0.000000
						}
					}
				}
			}
			JOINT Left_ShortSleeve
			{
				OFFSET 0.265923 -10.480953 1.153800
				CHANNELS 3 Xrotation Yrotation Zrotation
				End Site
				{
					OFFSET 1.725763 19.823879 0.000000
				}
			}
		}
		JOINT RightUpLeg
		{
			OFFSET -6.797100 -2.508499 -1.318700
			CHANNELS 3 Xrotation Yrotation Zrotation
			JOINT RightLeg
			{
				OFFSET -0.082453 -29.241932 0.688000
				CHANNELS 3 Xrotation Yrotation Zrotation
				JOINT RightFoot
				{
					OFFSET 0.082453 -29.568058 -0.264600
					CHANNELS 3 Xrotation Yrotation Zrotation
					JOINT RightToeBase
					{
						OFFSET -3.115300 -8.682800 16.113400
						CHANNELS 3 Xrotation Yrotation Zrotation
						End Site
						{
							OFFSET 0.000000 18.567114 0.000000
						}
					}
				}
			}
			JOINT Right_ShortSleeve
			{
				OFFSET -0.265923 -10.480953 1.153800
				CHANNELS 3 Xrotation Yrotation Zrotation
				End Site
				{
					OFFSET -1.725766 19.823910 0.000000
				}
			}
		}
	}
	JOINT Spine
	{
		OFFSET 0.000000 13.368103 0.470500
		CHANNELS 3 Xrotation Yrotation Zrotation
		JOINT Spine1
		{
			OFFSET 0.147000 13.837402 0.538800
			CHANNELS 3 Xrotation Yrotation Zrotation
			JOINT Spine2
			{
				OFFSET 0.168000 16.242897 -1.435500
				CHANNELS 3 Xrotation Yrotation Zrotation
				JOINT Neck
				{
					OFFSET 0.217200 18.631500 -1.679100
					CHANNELS 3 Xrotation Yrotation Zrotation
					JOINT Head
					{
						OFFSET 0.000000 6.599396 1.385900
						CHANNELS 3 Xrotation Yrotation Zrotation
						JOINT Hat
						{
							OFFSET -0.532200 27.220596 -10.096100
							CHANNELS 3 Xrotation Yrotation Zrotation
							End Site
							{
								OFFSET 0.000000 22.029861 0.000000
							}
						}
						JOINT HairD
						{
							OFFSET -10.777400 17.437393 -1.325900
							CHANNELS 3 Xrotation Yrotation Zrotation
							JOINT HairD1
							{
								OFFSET -3.290299 -11.051193 1.062200
								CHANNELS 3 Xrotation Yrotation Zrotation
								End Site
								{
									OFFSET 0.000000 11.579437 0.000000
								}
							}
						}
						JOINT HairB
						{
							OFFSET -10.777400 17.437393 1.467900
							CHANNELS 3 Xrotation Yrotation Zrotation
							JOINT HairB1
							{
								OFFSET -1.561200 -12.956299 3.590200
								CHANNELS 3 Xrotation Yrotation Zrotation
								End Site
								{
									OFFSET 0.000000 13.534866 0.000000
								}
							}
						}
						JOINT HairA
						{
							OFFSET 9.713100 17.437393 1.467900
							CHANNELS 3 Xrotation Yrotation Zrotation
							JOINT HairA1
							{
								OFFSET 1.561200 -12.956299 3.590200
								CHANNELS 3 Xrotation Yrotation Zrotation
								End Site
								{
									OFFSET 0.000000 13.534866 0.000000
								}
							}
						}
						JOINT HairC
						{
							OFFSET 9.713100 17.437393 -1.325900
							CHANNELS 3 Xrotation Yrotation Zrotation
							JOINT HairC1
							{
								OFFSET 3.290300 -11.051193 1.062200
								CHANNELS 3 Xrotation Yrotation Zrotation
								End Site
								{
									OFFSET 0.000000 11.579437 0.000000
								}
							}
						}
					}
				}
				JOINT LeftShoulder
				{
					OFFSET 5.101800 15.108002 -2.763700
					CHANNELS 3 Xrotation Yrotation Zrotation
					JOINT LeftArm
					{
						OFFSET 9.825497 2.506317 -1.597400
						CHANNELS 3 Xrotation Yrotation Zrotation
						JOINT LeftForeArm
						{
							OFFSET 21.966244 0.000000 0.000000
							CHANNELS 3 Xrotation Yrotation Zrotation
							JOINT LeftHand
							{
								OFFSET 33.879036 0.000000 0.000000
								CHANNELS 3 Xrotation Yrotation Zrotation
								JOINT LeftHandThumb1
								{
									OFFSET 6.715286 -2.359680 3.363841
									CHANNELS 3 Xrotation Yrotation Zrotation
									JOINT LeftHandThumb2
									{
										OFFSET 2.507072 -1.447464 1.447461
										CHANNELS 3 Xrotation Yrotation Zrotation
										JOINT LeftHandThumb3
										{
											OFFSET 2.898338 -1.673355 1.673357
											CHANNELS 3 Xrotation Yrotation Zrotation
											End Site
											{
												OFFSET -0.295959 3.727692 -0.131651
											}
										}
									}
								}
								JOINT LeftHandIndex1
								{
									OFFSET 14.190811 -0.254547 3.840278
									CHANNELS 3 Xrotation Yrotation Zrotation
									JOINT LeftHandIndex2
									{
										OFFSET 3.551727 0.000000 -0.000000
										CHANNELS 3 Xrotation Yrotation Zrotation
										JOINT LeftHandIndex3
										{
											OFFSET 2.894196 0.000000 0.000000
											CHANNELS 3 Xrotation Yrotation Zrotation
											End Site
											{
												OFFSET -1.000603 2.690872 0.366626
											}
										}
									}
								}
								JOINT LeftHandMiddle1
								{
									OFFSET 13.776489 0.000000 0.000000
									CHANNELS 3 Xrotation Yrotation Zrotation
									JOINT LeftHandMiddle2
									{
										OFFSET 3.438232 0.000000 0.000000
										CHANNELS 3 Xrotation Yrotation Zrotation
										JOINT LeftHandMiddle3
										{
											OFFSET 3.691551 0.000000 0.000000
											CHANNELS 3 Xrotation Yrotation Zrotation
											End Site
											{
												OFFSET -1.082298 3.499527 0.457670
											}
										}
									}
								}
								JOINT LeftHandRing1
								{
									OFFSET 13.966164 -0.268127 -3.067488
									CHANNELS 3 Xrotation Yrotation Zrotation
									JOINT LeftHandRing2
									{
										OFFSET 3.162567 0.000000 0.000000
										CHANNELS 3 Xrotation Yrotation Zrotation
										JOINT LeftHandRing3
										{
											OFFSET 3.324348 0.000000 0.000000
											CHANNELS 3 Xrotation Yrotation Zrotation
											End Site
											{
												OFFSET -0.861900 3.184998 0.405154
											}
										}
									}
								}
								JOINT LeftHandPinky1
								{
									OFFSET 13.131393 -0.168503 -5.746925
									CHANNELS 3 Xrotation Yrotation Zrotation
									JOINT LeftHandPinky2
									{
										OFFSET 2.849182 0.000000 0.000000
										CHANNELS 3 Xrotation Yrotation Zrotation
										JOINT LeftHandPinky3
										{
											OFFSET 2.805038 0.000000 0.000000
											CHANNELS 3 Xrotation Yrotation Zrotation
											End Site
											{
												OFFSET -0.882500 2.642609 0.325652
											}
										}
									}
								}
							}
							JOINT Left_Sleeve
							{
								OFFSET 6.592125 -0.646545 0.805568
								CHANNELS 3 Xrotation Yrotation Zrotation
								End Site
								{
									OFFSET -0.000179 20.275787 -0.000000
								}
							}
						}
					}
				}
				JOINT RightShoulder
				{
					OFFSET -5.731700 15.108002 -2.763700
					CHANNELS 3 Xrotation Yrotation Zrotation
					JOINT RightArm
					{
						OFFSET -9.825497 2.506317 -1.597400
						CHANNELS 3 Xrotation Yrotation Zrotation
						JOINT RightForeArm
						{
							OFFSET -21.966242 0.000000 0.000000
							CHANNELS 3 Xrotation Yrotation Zrotation
							JOINT RightHand
							{
								OFFSET -33.879032 0.000000 0.000000
								CHANNELS 3 Xrotation Yrotation Zrotation
								JOINT RightHandThumb1
								{
									OFFSET -6.715286 -2.359680 3.363841
									CHANNELS 3 Xrotation Yrotation Zrotation
									JOINT RightHandThumb2
									{
										OFFSET -2.507072 -1.447464 1.447461
										CHANNELS 3 Xrotation Yrotation Zrotation
										JOINT RightHandThumb3
										{
											OFFSET -2.898338 -1.673355 1.673357
											CHANNELS 3 Xrotation Yrotation Zrotation
											End Site
											{
												OFFSET 0.295959 3.727692 -0.131651
											}
										}
									}
								}
								JOINT RightHandIndex1
								{
									OFFSET -14.190811 -0.254547 3.840278
									CHANNELS 3 Xrotation Yrotation Zrotation
									JOINT RightHandIndex2
									{
										OFFSET -3.551727 0.000000 -0.000000
										CHANNELS 3 Xrotation Yrotation Zrotation
										JOINT RightHandIndex3
										{
											OFFSET -2.894196 0.000000 0.000000
											CHANNELS 3 Xrotation Yrotation Zrotation
											End Site
											{
												OFFSET 1.000603 2.690872 0.366626
											}
										}
									}
								}
								JOINT RightHandMiddle1
								{
									OFFSET -13.776489 0.000000 0.000000
									CHANNELS 3 Xrotation Yrotation Zrotation
									JOINT RightHandMiddle2
									{
										OFFSET -3.438232 0.000000 0.000000
										CHANNELS 3 Xrotation Yrotation Zrotation
										JOINT RightHandMiddle3
										{
											OFFSET -3.691551 0.000000 0.000000
											CHANNELS 3 Xrotation Yrotation Zrotation
											End Site
											{
												OFFSET 1.082298 3.499527 0.457670
											}
										}
									}
								}
								JOINT RightHandRing1
								{
									OFFSET -13.966164 -0.268127 -3.067488
									CHANNELS 3 Xrotation Yrotation Zrotation
									JOINT RightHandRing2
									{
										OFFSET -3.162567 0.000000 0.000000
										CHANNELS 3 Xrotation Yrotation Zrotation
										JOINT RightHandRing3
										{
											OFFSET -3.324348 0.000000 0.000000
											CHANNELS 3 Xrotation Yrotation Zrotation
											End Site
											{
												OFFSET 0.861900 3.184998 0.405154
											}
										}
									}
								}
								JOINT RightHandPinky1
								{
									OFFSET -13.131393 -0.168503 -5.746925
									CHANNELS 3 Xrotation Yrotation Zrotation
									JOINT RightHandPinky2
									{
										OFFSET -2.849182 0.000000 0.000000
										CHANNELS 3 Xrotation Yrotation Zrotation
										JOINT RightHandPinky3
										{
											OFFSET -2.805038 0.000000 0.000000
											CHANNELS 3 Xrotation Yrotation Zrotation
											End Site
											{
												OFFSET 0.882500 2.642609 0.325652
											}
										}
									}
								}
							}
							JOINT Right_Sleeve
							{
								OFFSET -6.592125 -0.646545 0.805568
								CHANNELS 3 Xrotation Yrotation Zrotation
								End Site
								{
									OFFSET 0.000179 20.275787 -0.000000
								}
							}
						}
					}
				}
				JOINT Bind_Right_JacketString
				{
					OFFSET -3.534800 11.969597 7.200700
					CHANNELS 3 Xrotation Yrotation Zrotation
					JOINT Bind_Right_JacketString1
					{
						OFFSET -0.319900 -6.102600 2.794100
						CHANNELS 3 Xrotation Yrotation Zrotation
						End Site
						{
							OFFSET 0.000000 6.719452 0.000000
						}
					}
				}
				JOINT Bind_Left_JacketString
				{
					OFFSET 2.904800 11.969597 7.200700
					CHANNELS 3 Xrotation Yrotation Zrotation
					JOINT Bind_Left_JacketString1
					{
						OFFSET 0.364800 -5.904503 3.186800
						CHANNELS 3 Xrotation Yrotation Zrotation
						End Site
						{
							OFFSET 0.000000 6.719513 0.000000
						}
					}
				}
				JOINT HairE
				{
					OFFSET 5.915200 17.612701 -11.592200
					CHANNELS 3 Xrotation Yrotation Zrotation
					JOINT HairE1
					{
						OFFSET 0.289200 -7.171898 -1.284500
						CHANNELS 3 Xrotation Yrotation Zrotation
						End Site
						{
							OFFSET 0.000000 7.291756 0.000000
						}
					}
				}
				JOINT HairF
				{
					OFFSET -0.864800 17.612701 -11.592200
					CHANNELS 3 Xrotation Yrotation Zrotation
					JOINT HairF1
					{
						OFFSET 0.000000 -14.087097 -2.127501
						CHANNELS 3 Xrotation Yrotation Zrotation
						End Site
						{
							OFFSET 0.000000 14.246841 0.000000
						}
					}
				}
				JOINT HairG
				{
					OFFSET -8.087700 17.612701 -11.592200
					CHANNELS 3 Xrotation Yrotation Zrotation
					JOINT HairG1
					{
						OFFSET -0.293600 -6.081398 -0.910100
						CHANNELS 3 Xrotation Yrotation Zrotation
						End Site
						{
							OFFSET 0.000000 6.156120 0.000000
						}
					}
				}
			}
		}
	}
	JOINT Pouch
	{
		OFFSET 0.000000 4.394501 10.847300
		CHANNELS 3 Xrotation Yrotation Zrotation
		End Site
		{
			OFFSET 0.000000 21.880577 0.000000
		}
	}
	JOINT Bag
	{
		OFFSET -13.229000 4.813004 -0.593300
		CHANNELS 3 Xrotation Yrotation Zrotation
		End Site
		{
			OFFSET 0.000000 21.880577 0.000000
		}
	}
	JOINT OccupyGuyFacialAnim_Joint
	{
		OFFSET 1.000000 -70.206398 -1.655000
		CHANNELS 3 Xrotation Yrotation Zrotation
		End Site
		{
			OFFSET 0.000000 21.880577 0.000000
		}
	}
}
MOTION
Frames: 4
Frame Time: 0.016667
10.061137 68.418022 44.421413 170.681933 16.183302 -174.177938 -0.000001 0.000001 -0.000000 -35.959805 4.367147 -11.503012 53.366225 17.211489 1.050742 -13.211073 0.026643 11.810287 -0.000000 0.000000 0.000000 0.000001 0.000000 -0.000003 -22.818472 -45.024528 -3.839335 29.426811 -0.617765 -21.156547 -21.149662 -2.724492 12.049309 0.000000 -0.000003 0.000000 0.000001 -0.000001 -0.000001 1.599111 -0.107636 -0.669556 3.193034 -0.371046 -2.085583 3.193046 -0.371037 -2.085585 -3.106569 1.903274 0.923157 -6.403974 9.694891 -9.492039 0.000000 0.000000 -0.000000 0.000000 0.000000 -0.000000 0.000000 0.000000 0.000000 0.000000 0.000000 -0.000000 -0.000001 -0.000000 -0.000001 0.000000 0.000000 -0.000000 -0.000001 -0.000000 -0.000001 0.000000 0.000000 -0.000000 0.000000 0.000000 -0.000000 0.589952 -3.424987 -10.772171 11.925525 -3.703043 -74.560510 15.460767 -20.029926 5.635594 -5.994551 -12.331075 -0.164768 25.111233 -2.687240 20.499102 9.304977 24.441173 -0.847860 -0.000001 -0.000000 -0.000000 0.599990 6.911502 -23.883864 2.733480 1.542661 -36.765983 -0.000000 -0.000001 -0.000002 0.976169 7.422058 -32.221704 5.809212 1.256773 -45.781139 0.000003 -0.000001 0.000000 -1.227809 6.340707 -44.477857 7.491194 2.055266 -50.574436 0.000001 -0.000001 0.000001 -5.698650 1.174845 -43.952742 10.001143 3.459257 -50.341961 0.000002 0.000002 -0.000000 0.000005 0.000000 0.000000 0.522964 4.211149 19.586232 2.696604 -13.981215 60.673800 -19.032407 15.367646 5.830103 -3.362595 5.913696 -29.905662 3.824820 -12.345966 -1.042577 4.523896 -9.504802 0.488638 -0.000002 -0.000001 -0.000001 3.545370 -9.668672 69.326700 8.886338 -3.241683 112.372574 0.000001 -0.000000 0.000000 5.660032 -9.815703 93.151705 8.809070 -2.682470 83.366284 -0.000002 0.000001 -0.000001 4.831695 -12.380520 97.852493 10.912791 -3.225632 91.663495 0.000003 -0.000001 0.000005 0.270010 -10.740425 93.149765 10.737837 -3.968356 60.274316 -0.000001 0.000000 0.000001 -0.000001 0.000001 0.000001 0.000001 0.000001 -0.000000 0.000001 -0.000001 -0.000000 0.000001 0.000001 -0.000000 0.000001 0.000001 -0.000000 0.000001 0.000001 -0.000000 0.000001 -0.000001 -0.000000 0.000001 0.000001 -0.000000 0.000001 0.000001 -0.000000 0.000001 0.000001 -0.000000 0.000001 -0.000001 -0.000000 -0.000001 0.000001 -0.000000 -0.000001 0.000001 -0.000000 -0.000001 0.000001 -0.000000 
10.253399 68.429199 44.115665 170.665623 14.826975 -173.911957 0.000000 0.000000 -0.000000 -37.051980 4.365102 -11.784190 51.776720 18.557428 1.050601 -11.666777 0.625202 11.012420 0.000000 -0.000000 -0.000000 0.000002 0.000000 -0.000002 -23.354891 -46.939048 -5.289753 29.812399 0.775227 -20.936278 -21.920433 -2.642384 11.671790 -0.000000 0.000001 0.000000 -0.000000 0.000002 -0.000001 1.621063 -0.059471 -0.796959 3.238059 -0.289682 -2.305682 3.238063 -0.289679 -2.305684 -3.098874 1.875921 0.756975 -6.614251 9.430318 -8.975815 0.000002 -0.000000 -0.000001 0.000002 -0.000000 -0.000001 0.000002 -0.000000 -0.000000 0.000002 -0.000000 0.000000 0.000001 -0.000000 0.000000 0.000002 -0.000000 0.000000 0.000001 -0.000000 0.000000 0.000002 -0.000000 -0.000001 0.000002 -0.000000 -0.000001 0.593587 -3.149151 -11.126614 12.107997 -3.502423 -74.344027 16.689144 -19.403336 5.931218 -6.014708 -12.760454 -0.019346 25.111237 -2.687240 20.499102 9.304968 24.441171 -0.847859 -0.000002 0.000001 -0.000001 0.599988 6.911502 -23.883865 2.733485 1.542659 -36.765973 0.000003 0.000002 -0.000002 0.976164 7.422056 -32.221697 5.809212 1.256772 -45.781139 0.000003 -0.000002 -0.000001 -1.227812 6.340707 -44.477857 7.491194 2.055265 -50.574443 -0.000002 0.000004 -0.000000 -5.698656 1.174845 -43.952742 10.001136 3.459261 -50.341961 0.000001 0.000003 -0.000004 -0.000003 0.000000 -0.000000 0.478997 4.759468 19.299263 2.562904 -14.039409 60.649320 -18.515234 15.288383 5.950524 -3.585232 5.905986 -29.511396 3.824821 -12.345956 -1.042585 4.523893 -9.504798 0.488636 0.000001 -0.000002 -0.000003 3.545371 -9.668664 69.326700 8.886327 -3.241681 112.372574 -0.000000 -0.000001 0.000002 5.660034 -9.815698 93.151705 8.809072 -2.682468 83.366284 -0.000001 -0.000001 0.000003 4.831696 -12.380517 97.852493 10.912794 -3.225634 91.663488 0.000004 -0.000003 -0.000005 0.270006 -10.740424 93.149765 10.737837 -3.968359 60.274316 -0.000000 0.000001 0.000001 -0.000004 -0.000001 0.000001 -0.000000 0.000001 0.000000 0.000001 0.000001 -0.000000 -0.000000 0.000001 -0.000000 -0.000000 0.000001 -0.000000 -0.000000 0.000001 0.000000 0.000001 0.000001 0.000000 -0.000000 0.000001 -0.000000 -0.000000 0.000001 -0.000000 -0.000000 0.000001 0.000000 0.000001 0.000001 0.000000 0.000000 0.000000 -0.000000 0.000000 0.000000 -0.000000 0.000000 0.000000 -0.000000 
10.449928 68.427559 43.756336 170.500264 13.606976 -173.612836 -0.000000 0.000001 -0.000000 -38.249903 4.215647 -11.997838 50.008890 19.395511 1.074621 -9.802384 1.108657 10.168263 0.000000 0.000000 -0.000000 -0.000001 -0.000000 -0.000000 -23.970535 -48.589095 -6.727953 30.151665 2.120669 -20.657393 -22.692996 -2.583751 11.456107 0.000000 -0.000000 -0.000000 -0.000000 -0.000001 -0.000001 1.597842 -0.027739 -0.923113 3.192300 -0.239235 -2.517724 3.192300 -0.239234 -2.517723 -3.105493 1.880131 0.591565 -6.727000 9.254844 -8.472986 0.000001 0.000000 0.000001 0.000001 0.000000 0.000001 0.000001 0.000000 0.000001 0.000001 0.000000 0.000001 0.000001 0.000000 -0.000000 0.000001 0.000000 0.000001 0.000001 0.000000 -0.000000 0.000001 0.000000 0.000001 0.000001 0.000000 0.000001 0.598398 -2.856966 -11.394514 12.188870 -3.254287 -74.195928 18.195093 -18.393281 6.189231 -6.079118 -13.297672 -0.148016 25.111231 -2.687240 20.499107 9.304974 24.441175 -0.847860 0.000001 -0.000000 -0.000002 0.599985 6.911503 -23.883867 2.733479 1.542659 -36.765973 0.000002 -0.000002 -0.000002 0.976159 7.422058 -32.221704 5.809212 1.256772 -45.781146 0.000001 0.000000 -0.000001 -1.227816 6.340708 -44.477861 7.491187 2.055262 -50.574440 -0.000001 -0.000001 -0.000001 -5.698663 1.174843 -43.952742 10.001134 3.459254 -50.341964 0.000002 0.000003 -0.000002 -0.000001 0.000001 -0.000001 0.435793 5.330391 19.010040 2.576020 -14.091292 60.643761 -17.868255 15.472252 6.017950 -3.854905 5.717814 -29.030322 3.824816 -12.345958 -1.042587 4.523894 -9.504802 0.488631 -0.000003 -0.000001 0.000000 3.545364 -9.668666 69.326700 8.886333 -3.241682 112.372574 -0.000000 -0.000001 -0.000002 5.660026 -9.815699 93.151705 8.809071 -2.682466 83.366277 0.000001 0.000001 -0.000002 4.831693 -12.380517 97.852493 10.912792 -3.225635 91.663488 0.000001 0.000001 -0.000000 0.270003 -10.740429 93.149772 10.737834 -3.968353 60.274309 -0.000000 0.000004 -0.000002 0.000001 0.000000 0.000001 -0.000000 0.000002 -0.000000 0.000002 0.000002 -0.000000 -0.000000 0.000002 -0.000000 -0.000000 0.000002 -0.000000 -0.000000 0.000002 -0.000000 0.000002 0.000002 -0.000000 -0.000000 0.000002 -0.000000 -0.000000 0.000002 -0.000000 -0.000000 0.000002 -0.000000 0.000002 0.000002 -0.000000 -0.000000 0.000001 -0.000000 -0.000000 0.000001 -0.000000 -0.000000 0.000001 -0.000000 
10.655947 68.411880 43.334202 170.133619 12.479580 -173.272159 -0.000000 -0.000001 -0.000000 -39.553089 3.907356 -12.151082 47.997112 19.810088 1.095260 -7.596478 1.465754 9.124448 0.000000 -0.000000 -0.000001 -0.000001 -0.000000 -0.000003 -24.827068 -50.072072 -8.157551 30.533326 3.398617 -20.441347 -23.346626 -2.491462 11.196622 -0.000000 -0.000002 0.000000 0.000000 0.000000 0.000000 1.514645 -0.018081 -1.048668 3.025953 -0.229813 -2.721200 3.025954 -0.229815 -2.721201 -3.171295 1.900562 0.447723 -6.687578 9.142476 -8.002326 -0.000000 0.000000 0.000001 -0.000000 0.000000 0.000001 -0.000000 0.000000 0.000001 -0.000000 0.000000 0.000001 -0.000000 0.000000 0.000001 -0.000000 0.000000 0.000001 -0.000000 0.000000 0.000001 -0.000000 0.000000 0.000001 -0.000000 0.000000 0.000001 0.603997 -2.532145 -11.575474 12.194113 -2.978924 -74.101166 19.824878 -17.114707 6.352083 -6.185780 -13.903240 -0.535149 25.111237 -2.687239 20.499102 9.304976 24.441173 -0.847859 -0.000003 -0.000000 -0.000001 0.599985 6.911503 -23.883865 2.733488 1.542661 -36.765973 -0.000000 -0.000000 0.000003 0.976165 7.422058 -32.221704 5.809215 1.256771 -45.781143 0.000001 0.000002 0.000003 -1.227814 6.340708 -44.477861 7.491194 2.055270 -50.574436 0.000002 0.000001 0.000000 -5.698656 1.174844 -43.952742 10.001135 3.459257 -50.341967 0.000002 0.000002 -0.000000 0.000001 0.000000 -0.000000 0.392380 5.929744 18.726039 2.703889 -14.176570 60.696831 -17.137913 15.854867 5.978294 -4.122292 5.364147 -28.528100 3.824817 -12.345963 -1.042581 4.523890 -9.504800 0.488633 0.000004 -0.000003 -0.000001 3.545367 -9.668671 69.326700 8.886333 -3.241681 112.372581 0.000000 0.000000 0.000000 5.660028 -9.815702 93.151705 8.809067 -2.682469 83.366284 0.000001 0.000000 -0.000001 4.831693 -12.380517 97.852493 10.912789 -3.225631 91.663495 -0.000001 -0.000002 0.000003 0.270004 -10.740429 93.149765 10.737831 -3.968354 60.274309 -0.000001 0.000001 0.000002 0.000001 0.000000 0.000002 -0.000000 -0.000001 -0.000000 0.000001 -0.000001 -0.000000 -0.000000 -0.000001 -0.000000 -0.000000 -0.000001 -0.000000 -0.000000 -0.000001 -0.000000 0.000001 -0.000001 -0.000000 -0.000000 -0.000001 -0.000000 -0.000000 -0.000001 -0.000000 -0.000000 -0.000001 -0.000000 0.000001 -0.000001 -0.000000 -0.000000 -0.000001 -0.000000 -0.000000 -0.000001 -0.000000 -0.000000 -0.000001 -0.000000 
